<svg version="1.1" xmlns="http://www.w3.org/2000/svg" viewBox="0 0 142.01267461606153 277.4945934979544" width="142.01267461606153" height="277.4945934979544"><!-- svg-source:excalidraw --><metadata></metadata><defs><style class="style-fonts">
      </style></defs><g stroke-linecap="round"><g stroke-opacity="0.5" fill-opacity="0.5" transform="translate(10.956836600229053 10.22138667838658) rotate(0 59.59111159002282 128.29447231314703)"><path d="M-0.96 0.54 C19.2 17, 111.34 55.42, 120.23 98.03 C129.11 140.63, 63.97 229.89, 52.36 256.17 M0.74 -0.22 C20.9 16.41, 111.29 56.04, 119.83 98.96 C128.36 141.87, 63.54 231.03, 51.94 257.27" stroke="#495057" stroke-width="2" fill="none"></path></g><g stroke-opacity="0.5" fill-opacity="0.5" transform="translate(10.956836600229053 10.22138667838658) rotate(0 59.59111159002282 128.29447231314703)"><path d="M56.11 232.62 C55.86 240.24, 52.03 245.51, 51.94 257.27 M56.11 232.62 C54.11 239.54, 52.75 246.5, 51.94 257.27" stroke="#495057" stroke-width="2" fill="none"></path></g><g stroke-opacity="0.5" fill-opacity="0.5" transform="translate(10.956836600229053 10.22138667838658) rotate(0 59.59111159002282 128.29447231314703)"><path d="M70.98 241.07 C67.22 246.54, 59.83 249.79, 51.94 257.27 M70.98 241.07 C65.12 245.65, 59.8 250.36, 51.94 257.27" stroke="#495057" stroke-width="2" fill="none"></path></g></g><mask></mask></svg>